<svg data-v-423bf9ae="" xmlns="http://www.w3.org/2000/svg" viewBox="0 0 304.13597468395466 60" class="font"><!----><!----><!----><g data-v-423bf9ae="" id="ca5fd368-6fd6-4875-ac1e-267de9382b7b" fill="white" transform="matrix(5.665722297967836,0,0,5.665722297967836,-0.9631766594741009,-22.832862526363378)"><path d="M6.71 4.33L8.22 4.33L4.87 14.52L3.43 14.52L0.17 4.33L1.64 4.33L4.18 12.75L6.71 4.33ZM12.24 13.68L12.24 13.68L12.24 13.68Q13.21 13.66 13.59 13.54L13.59 13.54L13.59 13.54Q13.97 13.41 13.97 13.05L13.97 13.05L13.97 13.05Q14.04 12.07 14.04 10.79L14.04 10.79L14.04 10.79Q14.04 10.36 14.01 9.57L14.01 9.57L14.01 9.57Q13.97 8.78 13.97 8.40L13.97 8.40L13.97 8.40Q13.97 8.29 13.94 8.19L13.94 8.19L13.94 8.19Q13.90 8.09 13.81 8.03L13.81 8.03L13.81 8.03Q13.73 7.96 13.64 7.92L13.64 7.92L13.64 7.92Q13.56 7.87 13.40 7.84L13.40 7.84L13.40 7.84Q13.25 7.81 13.14 7.79L13.14 7.79L13.14 7.79Q13.04 7.77 12.84 7.77L12.84 7.77L12.84 7.77Q12.65 7.76 12.54 7.76L12.54 7.76L12.54 7.76Q12.43 7.76 12.23 7.76L12.23 7.76L12.23 7.76Q12.02 7.76 11.92 7.76L11.92 7.76L11.92 7.76Q11.81 7.76 11.62 7.77L11.62 7.77L11.62 7.77Q11.42 7.77 11.32 7.79L11.32 7.79L11.32 7.79Q11.21 7.81 11.06 7.84L11.06 7.84L11.06 7.84Q10.90 7.87 10.82 7.92L10.82 7.92L10.82 7.92Q10.73 7.96 10.65 8.03L10.65 8.03L10.65 8.03Q10.56 8.09 10.52 8.19L10.52 8.19L10.52 8.19Q10.49 8.29 10.49 8.40L10.49 8.40L10.49 8.40Q10.49 8.78 10.45 9.57L10.45 9.57L10.45 9.57Q10.42 10.36 10.42 10.79L10.42 10.79L10.42 10.79Q10.42 12.07 10.49 13.05L10.49 13.05L10.49 13.05Q10.49 13.41 10.89 13.55L10.89 13.55L10.89 13.55Q11.29 13.68 12.24 13.68ZM12.22 14.62L12.22 14.62L12.22 14.62Q11.46 14.62 10.96 14.56L10.96 14.56L10.96 14.56Q10.45 14.50 10.09 14.29L10.09 14.29L10.09 14.29Q9.72 14.08 9.53 13.85L9.53 13.85L9.53 13.85Q9.34 13.61 9.23 13.10L9.23 13.10L9.23 13.10Q9.12 12.59 9.10 12.09L9.10 12.09L9.10 12.09Q9.07 11.59 9.07 10.71L9.07 10.71L9.07 10.71Q9.07 10.04 9.09 9.60L9.09 9.60L9.09 9.60Q9.11 9.15 9.17 8.73L9.17 8.73L9.17 8.73Q9.23 8.30 9.32 8.04L9.32 8.04L9.32 8.04Q9.41 7.77 9.59 7.54L9.59 7.54L9.59 7.54Q9.76 7.30 9.98 7.18L9.98 7.18L9.98 7.18Q10.20 7.05 10.54 6.96L10.54 6.96L10.54 6.96Q10.88 6.87 11.28 6.84L11.28 6.84L11.28 6.84Q11.68 6.81 12.23 6.81L12.23 6.81L12.23 6.81Q12.78 6.81 13.18 6.84L13.18 6.84L13.18 6.84Q13.58 6.87 13.92 6.96L13.92 6.96L13.92 6.96Q14.26 7.05 14.48 7.18L14.48 7.18L14.48 7.18Q14.70 7.30 14.87 7.54L14.87 7.54L14.87 7.54Q15.05 7.77 15.14 8.04L15.14 8.04L15.14 8.04Q15.23 8.30 15.29 8.73L15.29 8.73L15.29 8.73Q15.35 9.15 15.37 9.60L15.37 9.60L15.37 9.60Q15.39 10.04 15.39 10.71L15.39 10.71L15.39 10.71Q15.39 11.59 15.36 12.09L15.36 12.09L15.36 12.09Q15.34 12.59 15.23 13.10L15.23 13.10L15.23 13.10Q15.12 13.61 14.93 13.85L14.93 13.85L14.93 13.85Q14.73 14.09 14.37 14.29L14.37 14.29L14.37 14.29Q14 14.50 13.49 14.56L13.49 14.56L13.49 14.56Q12.99 14.62 12.22 14.62ZM20.25 13.68L20.25 13.68L20.25 13.68Q21.22 13.66 21.60 13.54L21.60 13.54L21.60 13.54Q21.98 13.41 21.98 13.05L21.98 13.05L21.98 13.05Q22.05 12.07 22.05 10.79L22.05 10.79L22.05 10.79Q22.05 10.36 22.02 9.57L22.02 9.57L22.02 9.57Q21.98 8.78 21.98 8.40L21.98 8.40L21.98 8.40Q21.98 8.29 21.95 8.19L21.95 8.19L21.95 8.19Q21.91 8.09 21.82 8.03L21.82 8.03L21.82 8.03Q21.74 7.96 21.65 7.92L21.65 7.92L21.65 7.92Q21.57 7.87 21.41 7.84L21.41 7.84L21.41 7.84Q21.26 7.81 21.15 7.79L21.15 7.79L21.15 7.79Q21.05 7.77 20.85 7.77L20.85 7.77L20.85 7.77Q20.66 7.76 20.55 7.76L20.55 7.76L20.55 7.76Q20.45 7.76 20.24 7.76L20.24 7.76L20.24 7.76Q20.04 7.76 19.93 7.76L19.93 7.76L19.93 7.76Q19.82 7.76 19.63 7.77L19.63 7.77L19.63 7.77Q19.43 7.77 19.33 7.79L19.33 7.79L19.33 7.79Q19.22 7.81 19.07 7.84L19.07 7.84L19.07 7.84Q18.92 7.87 18.83 7.92L18.83 7.92L18.83 7.92Q18.74 7.96 18.66 8.03L18.66 8.03L18.66 8.03Q18.57 8.09 18.54 8.19L18.54 8.19L18.54 8.19Q18.50 8.29 18.50 8.40L18.50 8.40L18.50 8.40Q18.50 8.78 18.46 9.57L18.46 9.57L18.46 9.57Q18.43 10.36 18.43 10.79L18.43 10.79L18.43 10.79Q18.43 12.07 18.50 13.05L18.50 13.05L18.50 13.05Q18.50 13.41 18.90 13.55L18.90 13.55L18.90 13.55Q19.30 13.68 20.25 13.68ZM20.23 14.62L20.23 14.62L20.23 14.62Q19.48 14.62 18.97 14.56L18.97 14.56L18.97 14.56Q18.46 14.50 18.10 14.29L18.10 14.29L18.10 14.29Q17.73 14.08 17.54 13.85L17.54 13.85L17.54 13.85Q17.35 13.61 17.24 13.10L17.24 13.10L17.24 13.10Q17.13 12.59 17.11 12.09L17.11 12.09L17.11 12.09Q17.08 11.59 17.08 10.71L17.08 10.71L17.08 10.71Q17.08 10.04 17.10 9.60L17.10 9.60L17.10 9.60Q17.12 9.15 17.18 8.73L17.18 8.73L17.18 8.73Q17.24 8.30 17.33 8.04L17.33 8.04L17.33 8.04Q17.42 7.77 17.60 7.54L17.60 7.54L17.60 7.54Q17.77 7.30 17.99 7.18L17.99 7.18L17.99 7.18Q18.21 7.05 18.55 6.96L18.55 6.96L18.55 6.96Q18.89 6.87 19.29 6.84L19.29 6.84L19.29 6.84Q19.69 6.81 20.24 6.81L20.24 6.81L20.24 6.81Q20.79 6.81 21.19 6.84L21.19 6.84L21.19 6.84Q21.59 6.87 21.93 6.96L21.93 6.96L21.93 6.96Q22.27 7.05 22.49 7.18L22.49 7.18L22.49 7.18Q22.71 7.30 22.88 7.54L22.88 7.54L22.88 7.54Q23.06 7.77 23.15 8.04L23.15 8.04L23.15 8.04Q23.24 8.30 23.30 8.73L23.30 8.73L23.30 8.73Q23.37 9.15 23.38 9.60L23.38 9.60L23.38 9.60Q23.40 10.04 23.40 10.71L23.40 10.71L23.40 10.71Q23.40 11.59 23.38 12.09L23.38 12.09L23.38 12.09Q23.35 12.59 23.24 13.10L23.24 13.10L23.24 13.10Q23.13 13.61 22.94 13.85L22.94 13.85L22.94 13.85Q22.74 14.09 22.38 14.29L22.38 14.29L22.38 14.29Q22.01 14.50 21.51 14.56L21.51 14.56L21.51 14.56Q21 14.62 20.23 14.62ZM30.92 4.33L30.92 5.39L28.26 5.39L28.26 14.52L26.87 14.52L26.87 5.39L24.27 5.39L24.27 4.33L30.92 4.33ZM37.80 7.02L37.80 14.53L36.56 14.53L36.44 13.56L36.44 13.56Q36.26 14.10 35.66 14.36L35.66 14.36L35.66 14.36Q35.06 14.62 34.20 14.62L34.20 14.62L34.20 14.62Q33.61 14.62 33.21 14.51L33.21 14.51L33.21 14.51Q32.81 14.39 32.54 14.17L32.54 14.17L32.54 14.17Q32.27 13.95 32.12 13.55L32.12 13.55L32.12 13.55Q31.97 13.15 31.91 12.65L31.91 12.65L31.91 12.65Q31.86 12.15 31.86 11.42L31.86 11.42L31.86 7.02L33.20 7.02L33.20 11.38L33.20 11.38Q33.20 11.53 33.20 11.78L33.20 11.78L33.20 11.78Q33.20 12.04 33.20 12.14L33.20 12.14L33.20 12.14Q33.20 12.50 33.21 12.71L33.21 12.71L33.21 12.71Q33.22 12.91 33.28 13.11L33.28 13.11L33.28 13.11Q33.34 13.31 33.43 13.40L33.43 13.40L33.43 13.40Q33.53 13.49 33.72 13.57L33.72 13.57L33.72 13.57Q33.91 13.64 34.16 13.67L34.16 13.67L34.16 13.67Q34.41 13.69 34.80 13.69L34.80 13.69L34.80 13.69Q35.24 13.69 35.55 13.62L35.55 13.62L35.55 13.62Q35.85 13.56 36.03 13.46L36.03 13.46L36.03 13.46Q36.21 13.36 36.30 13.19L36.30 13.19L36.30 13.19Q36.39 13.02 36.42 12.86L36.42 12.86L36.42 12.86Q36.45 12.69 36.45 12.45L36.45 12.45L36.45 12.45Q36.45 12.37 36.45 12.18L36.45 12.18L36.45 12.18Q36.44 12.00 36.44 11.90L36.44 11.90L36.44 7.02L37.80 7.02ZM46.07 10.34L46.07 10.34L46.07 10.34Q46.07 10.86 46.07 11.20L46.07 11.20L46.07 11.20Q46.06 11.55 46.04 11.95L46.04 11.95L46.04 11.95Q46.02 12.35 45.98 12.61L45.98 12.61L45.98 12.61Q45.94 12.87 45.87 13.16L45.87 13.16L45.87 13.16Q45.80 13.45 45.70 13.62L45.70 13.62L45.70 13.62Q45.60 13.80 45.45 13.99L45.45 13.99L45.45 13.99Q45.31 14.17 45.12 14.27L45.12 14.27L45.12 14.27Q44.93 14.38 44.68 14.46L44.68 14.46L44.68 14.46Q44.43 14.55 44.13 14.59L44.13 14.59L44.13 14.59Q43.82 14.62 43.44 14.62L43.44 14.62L43.44 14.62Q41.65 14.62 41.26 13.58L41.26 13.58L41.14 14.52L39.91 14.52L39.91 4.14L41.25 4.03L41.25 7.85L41.25 7.85Q41.48 7.31 41.98 7.06L41.98 7.06L41.98 7.06Q42.48 6.81 43.33 6.81L43.33 6.81L43.33 6.81Q43.80 6.81 44.17 6.87L44.17 6.87L44.17 6.87Q44.54 6.92 44.82 7.05L44.82 7.05L44.82 7.05Q45.10 7.18 45.30 7.35L45.30 7.35L45.30 7.35Q45.51 7.51 45.64 7.76L45.64 7.76L45.64 7.76Q45.78 8.00 45.87 8.26L45.87 8.26L45.87 8.26Q45.95 8.51 46.00 8.87L46.00 8.87L46.00 8.87Q46.05 9.23 46.06 9.56L46.06 9.56L46.06 9.56Q46.07 9.88 46.07 10.34ZM44.73 12.13L44.73 9.32L44.73 9.32Q44.73 9.02 44.72 8.88L44.72 8.88L44.72 8.88Q44.72 8.73 44.70 8.53L44.70 8.53L44.70 8.53Q44.67 8.33 44.63 8.25L44.63 8.25L44.63 8.25Q44.59 8.17 44.51 8.06L44.51 8.06L44.51 8.06Q44.42 7.94 44.30 7.90L44.30 7.90L44.30 7.90Q44.18 7.86 43.99 7.82L43.99 7.82L43.99 7.82Q43.80 7.77 43.57 7.76L43.57 7.76L43.57 7.76Q43.34 7.75 43.01 7.75L43.01 7.75L43.01 7.75Q42.32 7.75 41.94 7.85L41.94 7.85L41.94 7.85Q41.55 7.95 41.38 8.18L41.38 8.18L41.38 8.18Q41.25 8.42 41.25 9.24L41.25 9.24L41.25 12.68L41.25 12.68Q41.25 13.24 41.65 13.46L41.65 13.46L41.65 13.46Q42.05 13.69 43.02 13.69L43.02 13.69L43.02 13.69Q43.98 13.69 44.34 13.51L44.34 13.51L44.34 13.51Q44.73 13.38 44.73 12.13L44.73 12.13ZM53.85 10.66L53.85 10.66L53.85 10.66Q53.03 10.75 52.83 10.76L52.83 10.76L49.11 10.76L49.11 10.76Q49.12 11.75 49.16 12.93L49.16 12.93L49.16 12.93Q49.20 13.39 49.56 13.54L49.56 13.54L49.56 13.54Q49.92 13.69 50.96 13.69L50.96 13.69L50.96 13.69Q51.34 13.69 51.63 13.65L51.63 13.65L51.63 13.65Q51.91 13.62 52.08 13.55L52.08 13.55L52.08 13.55Q52.25 13.47 52.35 13.40L52.35 13.40L52.35 13.40Q52.45 13.32 52.50 13.17L52.50 13.17L52.50 13.17Q52.55 13.02 52.56 12.91L52.56 12.91L52.56 12.91Q52.58 12.80 52.59 12.59L52.59 12.59L52.59 12.59Q52.60 12.37 52.62 12.24L52.62 12.24L53.67 12.43L53.67 12.43Q53.66 12.91 53.60 13.24L53.60 13.24L53.60 13.24Q53.55 13.57 53.42 13.82L53.42 13.82L53.42 13.82Q53.29 14.08 53.11 14.22L53.11 14.22L53.11 14.22Q52.93 14.37 52.63 14.46L52.63 14.46L52.63 14.46Q52.33 14.56 51.97 14.59L51.97 14.59L51.97 14.59Q51.60 14.62 51.07 14.62L51.07 14.62L51.07 14.62Q50.39 14.62 49.88 14.54L49.88 14.54L49.88 14.54Q49.38 14.46 49.02 14.35L49.02 14.35L49.02 14.35Q48.66 14.23 48.43 13.97L48.43 13.97L48.43 13.97Q48.19 13.71 48.06 13.47L48.06 13.47L48.06 13.47Q47.93 13.23 47.87 12.76L47.87 12.76L47.87 12.76Q47.80 12.30 47.79 11.92L47.79 11.92L47.79 11.92Q47.77 11.54 47.77 10.87L47.77 10.87L47.77 10.87Q47.77 9.93 47.79 9.40L47.79 9.40L47.79 9.40Q47.82 8.87 47.93 8.34L47.93 8.34L47.93 8.34Q48.04 7.81 48.22 7.57L48.22 7.57L48.22 7.57Q48.41 7.33 48.77 7.13L48.77 7.13L48.77 7.13Q49.13 6.92 49.62 6.87L49.62 6.87L49.62 6.87Q50.11 6.81 50.87 6.81L50.87 6.81L50.87 6.81Q51.40 6.81 51.78 6.84L51.78 6.84L51.78 6.84Q52.17 6.87 52.49 6.97L52.49 6.97L52.49 6.97Q52.81 7.06 53.02 7.18L53.02 7.18L53.02 7.18Q53.22 7.31 53.39 7.55L53.39 7.55L53.39 7.55Q53.55 7.79 53.63 8.04L53.63 8.04L53.63 8.04Q53.72 8.30 53.77 8.72L53.77 8.72L53.77 8.72Q53.83 9.15 53.84 9.58L53.84 9.58L53.84 9.58Q53.85 10.01 53.85 10.66ZM49.12 10.04L49.12 10.04L52.51 10.04L52.51 10.04Q52.49 9.17 52.44 8.44L52.44 8.44L52.44 8.44Q52.41 8.03 52.08 7.89L52.08 7.89L52.08 7.89Q51.75 7.75 50.87 7.75L50.87 7.75L50.87 7.75Q49.89 7.75 49.63 7.85L49.63 7.85L49.63 7.85Q49.51 7.89 49.43 7.97L49.43 7.97L49.43 7.97Q49.34 8.06 49.29 8.22L49.29 8.22L49.29 8.22Q49.23 8.37 49.20 8.51L49.20 8.51L49.20 8.51Q49.17 8.65 49.15 8.89L49.15 8.89L49.15 8.89Q49.14 9.13 49.13 9.27L49.13 9.27L49.13 9.27Q49.12 9.40 49.12 9.67L49.12 9.67L49.12 9.67Q49.12 9.95 49.12 10.04Z"></path></g><!----><!----></svg>